#define flyswatter_width 16
#define flyswatter_height 16
static char flyswatter_bits[] = {
 0xf8,0x03,0xa8,0x02,0x54,0x01,0xac,0x01,0xd6,0x00,0xaa,0x00,0x55,0x00,0x6b,
 0x00,0xd6,0x00,0xfc,0x01,0x70,0x00,0xe0,0x00,0xc0,0x01,0x80,0x03,0x00,0x07,
 0x00,0x06};
